<svg xmlns="http://www.w3.org/2000/svg" width="512" height="512" viewBox="0 0 512 512">
    <defs/>
    <rect width="512" height="512" fill="#000000" fill-opacity="1"/>
    <path fill="#00000A" fill-opacity="0.972549" stroke="#FFFFFF" stroke-opacity="1" stroke-width="5" stroke-linejoin="miter" d="M 768,110
C -253,757 768,-256 178,-242
C 768,-246 -256,768 -69,768
C -250,374 -206,-253 -246,-199
C 759,-207 768,0 768,-158
Z "/>
    <path fill="#FFC3FF" fill-opacity="0" stroke="#FF43FF" stroke-opacity="1" stroke-width="0" stroke-linejoin="miter" d="M 768,-231
C 768,768 -203,768 -255,768
C 768,719 -256,-254 768,768
C -256,-256 -256,291 -131,-256
C 768,-256 768,768 713,764
Z "/>
    <path fill="#000000" fill-opacity="0.24313726" stroke="#000000" stroke-opacity="1" stroke-width="0" stroke-linejoin="miter" d="M 768,768
C -256,-256 768,-256 -256,768
C 681,-255 768,724 767,124
C 743,768 768,768 762,-255
C -256,-256 -256,-256 -256,768
Z "/>
    <text fill="#6D5C58" fill-opacity="1" x="254" y="278" style="font-size:29px;font-weight:400;font-family:Special Elite;font-style:normal;font-stretch:normal" lengthAdjust="spacing" writing-mode="lr">
        Cool Band
    </text>
    <text fill="#6D5C58" fill-opacity="1" x="254" y="354" style="font-size:32px;font-weight:700;font-family:Special Elite;font-style:normal;font-stretch:normal" lengthAdjust="spacing" writing-mode="lr">
        New Song
    </text>
</svg>
