<svg xmlns="http://www.w3.org/2000/svg" width="512" height="512" viewBox="0 0 512 512">
    <defs/>
    <rect width="512" height="512" fill="rgb(97, 53, 18)" fill-opacity="1"/>
    <path fill="rgb(4, 3, 4)" fill-opacity="0.9764706" stroke="#0E1007" stroke-opacity="0.9764706" stroke-width="0" stroke-linejoin="miter" d="M 99,388 C 95,383 99,385 104,383 C 105,388 98,395 108,390 C 109,381 105,388 103,397 C 102,391 100,394 103,395 C 102,396 105,396 102,394 C 92,393 91,392 94,392 C 96,391 96,391 98,394 C 97,392 96,394 94,389 C 94,390 95,389 89,392 C 99,395 98,392 97,390 C 91,386 92,388 92,389 C 95,387 92,390 90,387 C 95,390 97,392 100,391 C 98,394 98,396 82,396 C 82,396 83,395 85,392 C 85,394 93,392 86,392 C 85,385 86,376 92,367 C 92,358 89,356 94,353 C 89,345 93,336 93,336 C 90,331 91,325 91,311 C 89,302 92,296 93,298 C 89,293 91,285 89,275 C 89,271 84,268 85,257 C 88,252 92,252 86,245 C 86,225 86,220 91,221 C 89,220 88,207 91,207 C 89,198 90,192 89,176 C 94,169 90,170 94,169 C 99,156 94,146 94,141 C 100,138 103,127 100,121 C 88,116 86,120 100,118 C 96,99 97,99 97,92 C 89,88 94,84 90,97 C 102,98 106,96 104,91 C 107,93 109,91 102,93 C 94,85 94,85 97,91 C 99,90 103,88 102,92 C 102,93 102,85 101,85 C 103,91 106,91 105,90 C 107,91 107,92 102,91 C 108,87 104,87 107,87 C 104,95 107,91 102,88 C 102,86 105,84 101,84 C 98,84 102,87 112,87 C 105,85 101,90 99,88 C 103,87 105,86 110,84 C 110,85 110,92 110,90 C 117,83 99,84 104,98 C 106,97 107,106 114,113 C 115,113 112,125 113,129 C 113,132 112,135 106,142 C 105,155 106,167 104,161 C 105,164 101,170 97,183 C 96,199 101,202 102,196 C 97,204 95,214 95,231 C 99,232 99,230 95,232 C 94,243 96,247 95,248 C 94,258 93,267 92,284 C 92,293 93,299 94,296 C 92,294 92,306 93,319 C 93,324 93,327 93,340 C 97,344 96,338 95,351 C 99,360 98,365 102,377 C 101,379 103,386 99,388 Z "/>
    <path fill="rgb(252, 176, 104)" fill-opacity="0.9490196" stroke="#233526" stroke-opacity="0.9490196" stroke-width="0" stroke-linejoin="miter" d="M 355,264 C 351,262 349,262 347,261 C 347,260 346,260 346,259 C 346,258 347,257 346,257 C 345,258 346,257 346,256 C 346,256 347,255 346,254 C 346,255 346,255 343,253 C 342,254 342,254 343,253 C 343,253 342,254 344,253 C 343,253 340,252 339,251 C 339,252 338,252 340,253 C 341,252 341,252 340,252 C 337,251 335,250 333,251 C 335,252 338,251 336,252 C 332,252 330,253 332,254 C 333,254 335,253 335,251 C 331,250 330,251 333,252 C 334,247 335,247 335,245 C 333,245 334,245 335,245 C 335,240 337,236 337,236 C 338,232 335,233 337,233 C 341,230 340,227 340,227 C 341,224 341,223 342,223 C 344,219 344,220 346,215 C 346,211 344,210 345,209 C 345,207 346,205 345,205 C 347,204 347,201 348,199 C 351,194 349,195 350,193 C 352,193 352,192 351,189 C 355,186 354,184 355,182 C 354,181 356,178 358,178 C 359,175 358,172 358,174 C 359,173 360,172 360,171 C 354,169 354,169 356,170 C 362,172 363,171 362,170 C 363,172 362,171 359,170 C 362,169 365,170 365,172 C 363,171 364,170 364,170 C 365,170 368,168 365,171 C 368,172 368,170 367,169 C 367,170 368,171 371,170 C 372,172 369,172 369,170 C 372,168 371,170 373,171 C 376,172 377,172 377,171 C 375,171 374,171 374,173 C 375,172 376,172 377,173 C 377,174 380,174 381,174 C 379,172 378,170 376,174 C 381,176 381,173 382,174 C 380,175 378,177 380,178 C 378,178 376,180 374,187 C 374,188 374,189 372,192 C 372,194 371,196 371,196 C 371,196 371,197 370,199 C 370,204 370,205 370,203 C 368,205 367,208 366,212 C 366,215 365,216 366,215 C 364,218 364,222 362,223 C 363,222 365,222 364,226 C 361,230 361,230 363,231 C 362,232 362,233 361,239 C 360,242 360,241 359,242 C 360,242 361,244 360,249 C 358,253 358,254 357,254 C 358,254 358,257 355,264 Z "/>
    <path fill="rgb(255, 120, 1)" fill-opacity="0.30980393" stroke="#60222A" stroke-opacity="0.30980393" stroke-width="0" stroke-linejoin="miter" d="M 188,245 C 193,232 202,233 222,233 C 226,244 235,248 238,244 C 245,237 259,242 267,228 C 265,231 264,232 287,227 C 294,224 299,220 303,216 C 309,212 314,209 318,205 C 324,201 329,197 332,193 C 336,189 337,185 341,176 C 356,173 360,172 366,169 C 371,166 376,162 382,158 C 387,155 393,151 398,146 C 403,142 408,139 411,136 C 415,131 414,128 425,124 C 414,116 416,104 416,75 C 424,71 413,65 423,61 C 449,52 457,55 455,55 C 446,60 448,55 431,65 C 430,111 433,113 428,116 C 425,96 425,95 428,109 C 431,143 435,147 441,124 C 437,132 432,135 436,141 C 439,159 446,164 440,169 C 437,194 439,206 439,201 C 440,198 438,200 441,235 C 450,243 448,233 439,226 C 444,266 445,273 445,276 C 445,276 446,285 448,291 C 453,299 456,299 449,300 C 447,292 447,296 450,325 C 457,351 455,340 452,325 C 459,326 460,343 462,345 C 470,350 461,355 461,394 C 493,388 486,386 481,346 C 473,346 460,344 461,343 C 457,340 457,339 451,327 C 444,320 437,317 434,314 C 428,313 422,311 416,308 C 409,304 405,301 399,299 C 393,296 388,295 381,293 C 375,289 370,287 363,285 C 356,282 351,281 342,277 C 337,273 330,271 326,269 C 320,269 313,266 309,265 C 303,268 295,264 289,273 C 271,262 257,273 251,273 C 247,278 234,274 241,270 C 235,274 228,268 205,273 C 199,257 194,262 188,245 Z "/>
    <path fill="rgb(249, 235, 214)" fill-opacity="0.76862746" stroke="#A8787C" stroke-opacity="0.76862746" stroke-width="0" stroke-linejoin="miter" d="M 0,248 C -21,246 -7,234 -7,215 C 10,212 20,210 27,225 C 24,239 19,242 65,245 C 78,242 83,238 88,235 C 94,231 99,228 105,225 C 110,221 115,218 121,214 C 126,209 130,206 131,195 C 110,156 104,150 149,145 C 139,189 120,189 171,185 C 177,182 182,178 188,175 C 193,171 199,168 203,152 C 175,134 169,149 172,107 C 177,102 181,99 188,97 C 193,96 199,92 209,90 C 218,101 221,111 220,100 C 235,97 230,86 248,105 C 260,119 273,126 274,132 C 280,133 282,140 281,143 C 282,144 281,147 275,160 C 268,175 263,176 241,153 C 241,155 243,163 238,168 C 238,181 238,179 236,184 C 236,198 237,229 239,229 C 250,219 242,221 270,230 C 269,267 239,237 239,282 C 240,277 240,286 239,303 C 242,308 244,310 239,300 C 239,317 239,311 240,343 C 242,353 241,358 243,365 C 248,369 253,373 265,364 C 281,380 289,384 291,383 C 290,382 277,391 271,409 C 241,408 232,407 227,409 C 226,389 218,386 234,366 C 247,383 246,393 241,344 C 235,341 228,338 220,335 C 215,332 210,329 203,329 C 197,327 194,326 188,320 C 179,317 171,315 168,318 C 165,311 159,303 147,299 C 140,300 143,299 139,289 C 133,286 127,283 122,280 C 116,277 111,274 104,271 C 98,268 92,264 84,261 C 81,259 77,259 72,252 C 66,248 61,245 53,241 C 43,239 32,240 31,253 C 1,250 9,245 0,248 Z "/>
    <path fill="rgb(179, 188, 32)" fill-opacity="0.19607843" stroke="#751A0B" stroke-opacity="0.19607843" stroke-width="0" stroke-linejoin="miter" d="M 97,319 C 101,296 104,292 109,288 C 142,290 139,283 136,276 C 136,271 135,264 134,257 C 131,251 129,245 127,239 C 125,233 124,226 122,220 C 120,214 118,208 116,202 C 114,195 112,189 110,183 C 108,177 106,171 104,165 C 102,158 100,152 98,146 C 96,140 94,135 92,129 C 89,124 86,118 84,112 C 82,104 80,98 80,92 C 78,88 76,82 74,74 C 63,65 60,59 55,55 C 60,56 59,56 59,51 C 53,41 23,27 38,59 C 47,66 54,68 61,65 C 70,43 51,47 52,52 C 67,51 62,50 67,56 C 69,64 80,73 86,75 C 82,76 87,78 127,85 C 134,85 121,82 126,80 C 125,85 132,88 163,94 C 155,87 163,91 165,91 C 159,92 164,94 204,103 C 206,101 205,98 217,103 C 234,110 242,111 245,110 C 256,111 265,110 269,112 C 272,110 280,101 279,102 C 285,94 284,111 303,91 C 299,85 294,87 321,89 C 338,92 346,100 344,122 C 337,136 334,140 330,145 C 326,149 316,150 313,157 C 301,159 291,148 281,123 C 265,121 261,125 256,130 C 252,134 247,139 243,144 C 239,148 234,153 230,158 C 226,163 221,167 217,172 C 213,177 208,182 204,186 C 199,191 195,196 191,201 C 186,205 182,210 178,215 C 173,220 169,225 165,229 C 161,235 156,239 153,245 C 148,249 143,254 139,258 C 135,263 132,271 145,284 C 166,303 162,314 151,348 C 101,344 96,347 97,319 Z "/>
    <path fill="rgb(58, 81, 128)" fill-opacity="0.011764706" stroke="#C69C9E" stroke-opacity="0.011764706" stroke-width="0" stroke-linejoin="miter" d="M 281,173 C 291,178 298,178 282,154 C 291,172 302,174 321,145 C 299,121 292,127 295,124 C 295,133 293,139 304,142 C 328,118 325,114 326,110 C 326,104 327,99 321,93 C 319,91 314,96 329,85 C 315,63 312,72 322,72 C 322,70 319,72 330,60 C 328,53 323,46 322,42 C 323,40 316,29 321,37 C 326,30 325,25 327,20 C 323,16 321,14 320,10 C 319,3 320,-5 324,-7 C 326,-9 326,-15 322,-24 C 299,-18 314,-30 316,-27 C 312,-26 313,-22 308,-14 C 316,-15 323,-20 317,-19 C 320,-16 323,-15 335,-23 C 338,-27 335,-23 341,-25 C 343,-23 345,-23 354,-29 C 372,-43 370,-39 375,-47 C 375,-60 369,-58 375,-45 C 395,-57 394,-59 384,-60 C 390,-55 409,-67 413,-82 C 398,-83 402,-76 399,-75 C 413,-73 419,-76 425,-82 C 436,-81 439,-96 432,-101 C 431,-95 441,-79 450,-108 C 457,-121 466,-120 463,-106 C 463,-90 466,-91 458,-109 C 478,-118 486,-115 506,-108 C 496,-110 496,-110 505,-114 C 507,-113 509,-113 511,-107 C 523,-87 525,-75 518,-73 C 507,-83 520,-82 520,-68 C 525,-78 532,-72 538,-66 C 541,-58 536,-72 522,-61 C 530,-36 532,-38 540,-38 C 543,-40 541,-44 537,-34 C 535,-30 539,-16 553,-4 C 568,7 573,5 563,3 C 561,11 562,12 574,8 C 587,11 585,6 571,24 C 581,36 583,39 572,23 C 578,26 575,28 601,50 C 614,55 602,42 599,44 C 605,33 603,30 622,67 C 621,69 620,51 634,61 C 637,73 634,76 635,81 C 620,92 607,105 597,98 C 587,81 600,86 589,81 C 594,79 592,83 584,73 C 561,92 547,105 538,114 C 546,130 550,129 540,125 C 547,118 556,114 532,131 C 526,139 526,141 523,145 C 519,152 521,154 522,155 C 523,150 516,158 508,166 C 503,173 501,176 501,181 C 502,182 493,187 500,188 C 512,196 514,193 508,192 C 499,197 507,194 510,204 C 519,218 516,215 504,227 C 485,227 489,232 488,221 C 495,199 486,216 496,209 C 484,203 481,205 469,206 C 455,203 455,193 449,187 C 447,185 445,185 443,177 C 440,176 436,173 431,172 C 432,179 425,175 420,169 C 415,167 412,166 408,166 C 404,164 399,162 395,161 C 390,161 388,162 382,160 C 376,157 371,158 368,158 C 365,155 360,153 346,161 C 332,176 335,177 338,183 C 315,182 324,193 327,196 C 316,193 323,190 316,181 C 300,192 297,177 281,173 Z "/>
    <text fill="rgb(255, 252, 253)" fill-opacity="1" x="17" y="487" style="font-size:43px;font-family:Playfair Display;font-style:italic;font-stretch:normal" lengthAdjust="spacing" writing-mode="lr">
        We're All In This Together
    </text>
    <text fill="rgb(144, 157, 161)" fill-opacity="1" x="134" y="83" style="font-size:84px;font-weight:300;font-family:Fira Sans;font-style:normal;font-stretch:normal" lengthAdjust="spacing" writing-mode="lr">
        Fatum
    </text>
</svg>