<svg xmlns="http://www.w3.org/2000/svg" width="512" height="512" viewBox="0 0 512 512">
    <style>@import url('https://fonts.googleapis.com/css?family=Neucha');
    </style>
    <defs/>
    <rect width="512" height="512" fill="rgb(139, 152, 157)" fill-opacity="1"/>
    <path fill="rgb(245, 198, 153)" fill-opacity="0.9764706" stroke="#264768" stroke-opacity="0.9764706" stroke-width="0" stroke-linejoin="miter" d="M 280,263 C 281,263 284,263 285,263 C 283,264 276,264 271,264 C 276,264 273,269 270,272 C 270,272 267,272 269,273 C 265,274 259,273 253,273 C 253,271 254,271 254,272 C 255,271 253,272 252,273 C 248,273 244,272 237,272 C 237,271 238,270 234,270 C 238,271 237,272 235,270 C 228,270 228,271 223,270 C 223,267 222,269 216,268 C 217,269 219,267 218,262 C 215,261 213,260 206,260 C 205,267 203,270 206,261 C 206,259 205,259 199,259 C 197,264 196,262 198,255 C 197,255 198,259 199,253 C 199,252 198,249 203,245 C 204,241 204,242 205,247 C 205,245 204,243 204,236 C 204,233 203,232 204,234 C 203,231 203,230 203,222 C 199,225 202,225 204,222 C 204,215 203,213 205,213 C 202,217 201,214 200,209 C 201,203 202,199 205,197 C 203,197 202,195 204,193 C 206,193 205,190 201,189 C 204,184 206,182 205,182 C 199,187 199,187 205,185 C 207,181 206,179 203,172 C 203,170 209,170 209,178 C 209,180 215,180 212,176 C 213,173 219,174 221,180 C 218,177 224,178 227,179 C 220,179 223,178 228,180 C 230,180 234,179 233,179 C 235,181 242,180 244,179 C 240,180 244,181 245,182 C 244,179 250,178 250,179 C 254,181 254,179 255,178 C 259,178 258,178 262,179 C 266,177 269,178 273,179 C 272,180 273,182 271,177 C 272,175 276,175 277,173 C 283,173 281,174 284,174 C 289,174 286,175 287,180 C 288,184 288,184 288,186 C 290,187 291,190 292,192 C 290,189 290,190 292,193 C 291,199 290,200 288,201 C 290,200 286,201 286,206 C 284,212 285,211 287,209 C 290,213 289,214 286,223 C 286,224 283,223 283,222 C 283,222 286,224 285,226 C 282,234 284,232 283,234 C 283,240 283,243 282,243 C 281,240 282,244 281,248 C 280,248 283,248 283,249 C 281,251 282,254 284,256 C 286,259 285,257 279,259 C 279,263 280,261 280,263 Z "/>
    <path fill="rgb(255, 251, 251)" fill-opacity="0.827451" stroke="#BEBAAF" stroke-opacity="0.827451" stroke-width="0" stroke-linejoin="miter" d="M 333,291 C 332,295 332,295 324,295 C 322,295 321,297 320,297 C 317,296 316,296 315,295 C 313,294 312,293 314,292 C 312,293 312,291 310,292 C 309,292 303,291 303,291 C 300,289 296,289 296,289 C 296,290 295,292 296,290 C 294,289 289,290 288,293 C 288,291 287,292 288,291 C 285,291 285,291 281,290 C 273,291 271,291 270,294 C 272,299 274,299 273,296 C 270,293 266,296 270,299 C 269,299 267,297 265,293 C 256,294 254,297 260,293 C 260,291 260,290 259,289 C 259,292 259,293 259,289 C 258,286 257,284 258,284 C 256,281 253,281 254,283 C 255,278 254,276 255,277 C 254,275 254,273 255,273 C 252,270 253,269 253,265 C 255,264 251,264 251,261 C 251,257 251,260 250,261 C 251,260 250,255 251,253 C 251,253 253,251 251,248 C 252,248 252,244 251,245 C 253,246 255,245 255,238 C 253,235 255,237 255,236 C 253,234 253,231 252,234 C 254,233 253,232 249,231 C 249,232 248,233 255,232 C 261,231 263,230 260,229 C 261,230 261,228 259,230 C 262,230 269,229 272,229 C 270,225 270,226 272,227 C 274,226 279,226 276,224 C 277,222 278,221 282,221 C 282,222 283,221 284,222 C 290,224 292,225 294,222 C 295,220 295,221 295,225 C 300,224 301,225 302,219 C 303,220 303,221 308,224 C 308,225 306,225 311,227 C 318,226 319,226 320,225 C 321,221 322,221 320,224 C 323,224 325,223 324,223 C 324,226 325,226 325,224 C 322,225 322,226 322,231 C 323,233 325,236 324,238 C 325,238 324,238 324,238 C 325,238 324,238 325,240 C 326,248 327,247 325,246 C 325,248 325,249 326,251 C 327,255 327,257 326,253 C 326,256 328,257 330,264 C 327,264 327,262 326,263 C 327,268 328,266 330,266 C 332,266 332,266 334,270 C 335,272 335,273 335,273 C 336,274 336,277 337,282 C 336,285 336,286 336,286 C 335,288 334,292 333,291 Z "/>
    <path fill="rgb(57, 80, 126)" fill-opacity="0.078431375" stroke="#3D5782" stroke-opacity="0.078431375" stroke-width="0" stroke-linejoin="miter" d="M 86,202 C 88,213 82,214 99,222 C 104,219 107,210 116,207 C 127,203 135,203 140,203 C 145,200 151,197 157,193 C 162,189 167,185 172,182 C 177,179 182,175 187,171 C 191,166 197,161 204,159 C 210,156 216,153 221,150 C 226,146 231,142 237,139 C 242,135 247,132 252,128 C 258,124 264,120 269,117 C 274,113 280,110 285,106 C 289,103 295,99 300,95 C 300,86 306,86 309,77 C 312,58 308,50 315,57 C 333,49 329,53 315,51 C 307,33 319,32 301,56 C 301,82 305,65 305,71 C 301,68 300,72 298,83 C 300,116 299,107 299,93 C 299,99 299,107 301,127 C 303,154 304,151 301,133 C 303,164 305,191 306,191 C 305,166 303,164 307,210 C 310,214 309,209 306,200 C 309,244 310,250 310,251 C 310,242 311,261 312,267 C 315,273 315,266 315,267 C 311,259 311,263 313,293 C 321,317 320,296 320,306 C 317,305 318,313 325,319 C 346,331 338,338 337,347 C 342,343 328,354 334,323 C 333,313 326,311 320,306 C 324,302 320,300 314,294 C 308,291 303,288 298,285 C 291,283 286,280 280,277 C 275,274 269,271 263,268 C 257,265 252,262 246,260 C 240,257 234,254 228,254 C 221,252 213,246 210,244 C 205,240 199,237 193,234 C 187,232 181,229 176,227 C 170,224 164,221 156,218 C 111,218 108,217 118,231 C 118,237 102,235 109,230 C 104,217 94,209 90,208 C 88,198 88,196 86,202 Z "/>
    <path fill="rgb(179, 188, 32)" fill-opacity="0.023529412" stroke="#D4D9D4" stroke-opacity="0.023529412" stroke-width="0" stroke-linejoin="miter" d="M 31,150 C 18,137 25,129 37,112 C 57,118 62,119 64,133 C 60,138 46,147 77,163 C 102,171 108,170 116,169 C 122,168 127,167 133,167 C 141,166 148,165 154,164 C 160,162 166,162 171,162 C 178,161 186,161 190,159 C 189,155 186,150 209,159 C 217,158 224,158 230,157 C 236,156 243,155 251,151 C 256,148 260,148 269,143 C 270,143 276,143 281,140 C 282,137 285,134 298,132 C 302,121 306,127 318,106 C 316,100 326,107 344,115 C 334,141 330,144 329,137 C 319,142 318,155 313,140 C 319,137 313,146 302,148 C 295,148 295,149 289,151 C 285,161 283,163 276,176 C 266,200 273,185 272,188 C 267,195 257,218 256,220 C 246,241 245,244 238,258 C 238,259 243,247 235,266 C 229,282 226,288 223,293 C 230,279 230,280 227,282 C 215,309 210,320 206,334 C 206,341 206,345 205,353 C 213,327 210,343 213,337 C 209,345 205,355 222,390 C 207,396 206,392 205,389 C 216,388 208,376 212,383 C 217,358 212,354 214,349 C 212,343 208,341 207,332 C 202,327 198,322 194,316 C 191,311 186,306 182,302 C 178,297 175,292 171,286 C 167,280 164,275 160,270 C 157,265 153,260 148,253 C 143,252 140,248 138,240 C 132,235 129,229 126,224 C 123,219 119,215 115,208 C 111,202 103,196 96,189 C 94,187 93,187 93,178 C 90,172 86,167 80,163 C 62,154 59,148 52,153 C 33,140 42,152 31,150 Z "/>
    <path fill="rgb(5, 4, 4)" fill-opacity="0.023529412" stroke="#752C20" stroke-opacity="0.023529412" stroke-width="0" stroke-linejoin="miter" d="M 157,396 C 166,384 166,382 171,379 C 183,377 182,373 187,363 C 190,359 194,352 197,345 C 198,339 200,333 202,327 C 205,321 207,315 209,308 C 211,302 214,296 216,290 C 218,284 220,278 222,272 C 224,265 226,259 228,253 C 230,247 231,242 234,235 C 236,229 237,223 239,217 C 241,210 243,204 246,198 C 246,192 248,185 248,182 C 248,178 252,170 255,163 C 250,150 250,140 243,149 C 253,141 251,140 255,134 C 261,118 252,99 236,128 C 239,143 245,148 250,151 C 255,143 240,129 245,146 C 257,156 251,153 256,156 C 265,163 270,174 273,171 C 267,170 267,174 290,200 C 295,203 290,196 298,207 C 294,205 296,207 317,231 C 319,233 325,240 309,222 C 312,225 317,231 348,266 C 353,270 356,273 344,262 C 363,283 373,294 378,300 C 383,305 387,309 391,313 C 395,316 400,317 403,318 C 412,318 419,305 419,290 C 417,306 418,297 404,318 C 413,325 416,334 423,345 C 426,324 431,322 430,319 C 421,312 411,314 406,312 C 404,312 398,312 391,312 C 384,311 378,312 371,313 C 365,315 359,316 353,317 C 346,319 340,320 333,322 C 327,323 321,324 314,326 C 308,327 302,328 296,329 C 290,331 283,332 276,334 C 270,335 264,336 258,338 C 251,340 245,341 238,343 C 233,345 227,346 221,346 C 214,347 207,348 201,350 C 195,352 187,355 183,363 C 176,373 167,380 158,398 C 147,380 136,386 157,396 Z "/>
    <path fill="rgb(131, 62, 12)" fill-opacity="0.003921569" stroke="#E6DBB3" stroke-opacity="0.003921569" stroke-width="0" stroke-linejoin="miter" d="M 218,132 C 213,139 220,139 220,136 C 225,143 234,141 246,137 C 250,114 239,122 249,128 C 253,127 250,126 262,126 C 269,125 272,123 278,121 C 282,117 284,115 288,106 C 286,103 286,105 295,105 C 301,102 304,98 307,95 C 308,92 313,90 317,87 C 319,84 323,80 326,77 C 329,75 332,66 332,67 C 337,66 341,64 346,61 C 350,50 349,52 350,50 C 354,44 359,38 361,36 C 363,38 367,37 373,34 C 361,16 374,21 374,20 C 365,20 371,23 351,24 C 368,30 367,30 363,29 C 364,31 368,34 379,38 C 391,40 381,38 387,42 C 389,44 392,43 393,49 C 399,53 409,56 410,56 C 420,56 418,55 418,59 C 426,64 429,66 427,67 C 440,71 454,72 464,72 C 447,67 451,74 465,81 C 479,87 480,89 469,85 C 475,85 484,77 482,89 C 499,95 497,94 513,88 C 528,80 530,91 514,90 C 512,91 513,97 520,79 C 529,86 547,93 551,94 C 547,111 535,113 548,111 C 543,120 546,123 542,121 C 524,134 519,142 519,146 C 525,138 518,136 517,139 C 529,143 523,146 521,154 C 516,176 521,174 507,161 C 501,186 505,178 506,177 C 508,179 509,177 506,175 C 505,179 499,187 492,223 C 494,233 498,227 493,231 C 491,234 490,233 487,252 C 500,258 494,253 496,257 C 493,264 488,266 488,261 C 492,258 490,268 496,283 C 490,287 491,283 488,275 C 487,291 490,286 485,293 C 478,294 487,283 495,292 C 469,294 467,297 463,316 C 460,318 456,305 454,296 C 467,292 467,298 449,291 C 449,306 448,305 451,296 C 432,287 433,289 406,283 C 398,302 407,309 398,292 C 400,291 411,294 385,289 C 376,288 371,289 368,290 C 372,290 370,298 358,309 C 377,297 369,298 351,294 C 345,297 342,297 334,296 C 341,296 321,291 314,294 C 313,320 317,310 326,301 C 311,299 298,299 298,302 C 298,299 301,301 307,307 C 315,310 315,311 315,298 C 316,290 303,286 300,286 C 295,289 299,289 298,289 C 302,270 302,265 295,259 C 294,259 295,253 291,248 C 290,245 289,240 282,233 C 281,247 282,237 284,226 C 283,221 284,218 280,217 C 280,210 278,206 277,199 C 274,195 272,193 271,189 C 270,183 264,179 258,178 C 257,175 259,169 254,167 C 256,164 252,160 237,156 C 224,147 231,155 223,149 C 213,158 222,158 229,144 C 224,138 217,135 218,132 Z "/>
    <text fill="rgb(255, 120, 1)" fill-opacity="1" x="15" y="474" style="font-size:80px;font-weight:400;font-family:Neucha;font-style:normal;font-stretch:normal" lengthAdjust="spacing" writing-mode="lr">
        Casiio – Affinity
    </text>
</svg>