<svg xmlns="http://www.w3.org/2000/svg" width="512" height="512" viewBox="0 0 512 512">
    <defs/>
    <rect width="512" height="512" fill="#0C0301" fill-opacity="1"/>
    <path fill="#F5F3F8" fill-opacity="0.84705883" stroke="#FB041B" stroke-opacity="0.8666667" stroke-width="0" stroke-linejoin="miter" d="M -114,287
C 368,311 148,166 227,286
C 95,222 359,211 283,309
C 260,110 307,378 406,264
C 54,355 -223,194 -230,413
Z "/>
    <path fill="#02185A" fill-opacity="0.03529412" stroke="#F7F99D" stroke-opacity="0" stroke-width="1" stroke-linejoin="miter" d="M 7,142
C 533,53 -27,87 -35,-94
C 365,526 271,636 573,-228
C 375,539 91,148 337,467
C 212,113 464,-115 647,115
Z "/>
    <path fill="#040001" fill-opacity="0.8039216" stroke="#FFFEFF" stroke-opacity="0" stroke-width="5" stroke-linejoin="miter" d="M 34,9
C 177,227 -71,124 464,241
C 250,-39 299,109 28,295
C 467,564 444,-73 91,276
C 499,303 347,23 100,-28
Z "/>
    <text fill="#E6E6E6" fill-opacity="1" x="89" y="280" style="font-size:52px;font-weight:400;font-family:Playfair Display;font-style:normal;font-stretch:normal" textLength="243" lengthAdjust="spacingAndGlyphs" writing-mode="lr">
        Cool Band
    </text>
    <text fill="#E6E6E6" fill-opacity="1" x="123" y="339" style="font-size:40px;font-weight:400;font-family:Playfair Display;font-style:normal;font-stretch:normal" lengthAdjust="spacing" writing-mode="lr">
        New Song
    </text>
</svg>
