<svg xmlns="http://www.w3.org/2000/svg" width="512" height="512" viewBox="0 0 512 512">
    <defs/>
    <rect width="512" height="512" fill="#000000" fill-opacity="1"/>
    <path fill="#000007" fill-opacity="0.9607843" stroke="#FFFFFF" stroke-opacity="1" stroke-width="5" stroke-linejoin="miter" d="M 768,160
C -250,750 768,-256 205,-240
C 768,-242 -256,768 -65,768
C -250,511 -212,-253 -244,-196
C 761,-205 768,15 768,-129
Z "/>
    <path fill="#FFA3FF" fill-opacity="0" stroke="#FF23FF" stroke-opacity="1" stroke-width="0" stroke-linejoin="miter" d="M 768,-232
C 768,768 -225,768 -255,768
C 768,727 -256,-250 768,768
C -256,-256 -256,576 -199,-256
C 768,-256 768,768 682,767
Z "/>
    <path fill="#000000" fill-opacity="0.1882353" stroke="#000000" stroke-opacity="1" stroke-width="0" stroke-linejoin="miter" d="M 768,768
C -256,-256 768,-256 -256,768
C 699,-250 768,721 767,207
C 707,768 768,768 752,-253
C -256,-256 -256,-256 -256,767
Z "/>
    <text fill="#6B5A57" fill-opacity="1" x="202" y="292" style="font-size:39px;font-weight:400;font-family:Cabin;font-style:normal;font-stretch:normal" textLength="170" lengthAdjust="spacingAndGlyphs" writing-mode="lr">
        Cool Band
    </text>
    <text fill="#6B5A57" fill-opacity="1" x="204" y="381" style="font-size:38px;font-weight:700;font-family:Cabin;font-style:normal;font-stretch:normal" lengthAdjust="spacing" writing-mode="lr">
        New Song
    </text>
</svg>
