<svg xmlns="http://www.w3.org/2000/svg" width="512" height="512" viewBox="0 0 512 512">
    <defs/>
    <rect width="512" height="512" fill="#000000" fill-opacity="1"/>
    <path fill="#000004" fill-opacity="0.9019608" stroke="#FFFDFF" stroke-opacity="1" stroke-width="5" stroke-linejoin="miter" d="M 768,254
C -245,740 768,-256 260,-247
C 768,-243 -256,768 -88,768
C -253,689 -235,-255 -245,-210
C 766,-222 768,77 768,-125
Z "/>
    <path fill="#FF39FF" fill-opacity="0" stroke="#FA00FF" stroke-opacity="1" stroke-width="0" stroke-linejoin="miter" d="M 768,-247
C 768,768 -230,768 -256,768
C 768,749 -256,-217 768,768
C -256,-256 -256,731 -251,-256
C 768,-256 768,768 687,768
Z "/>
    <path fill="#000000" fill-opacity="0.15686275" stroke="#000000" stroke-opacity="1" stroke-width="0" stroke-linejoin="miter" d="M 768,768
C -256,-256 768,-256 -256,768
C 683,-220 768,751 767,278
C 713,768 768,768 725,-253
C -256,-256 -256,-256 -256,767
Z "/>
    <text fill="#72585D" fill-opacity="1" x="201" y="299" style="font-size:37px;font-weight:400;font-family:Fira Sans;font-style:normal;font-stretch:normal" lengthAdjust="spacing" writing-mode="lr">
        Cool Band
    </text>
    <text fill="#72585D" fill-opacity="1" x="201" y="373" style="font-size:38px;font-weight:400;font-family:Fira Sans;font-style:normal;font-stretch:normal" textLength="171" lengthAdjust="spacing" writing-mode="lr">
        New Song
    </text>
</svg>
