<svg xmlns="http://www.w3.org/2000/svg" width="512" height="512" viewBox="0 0 512 512">
    <defs/>
    <rect width="512" height="512" fill="#000000" fill-opacity="1"/>
    <path fill="#000005" fill-opacity="0.9411765" stroke="#FFFEFF" stroke-opacity="1" stroke-width="5" stroke-linejoin="miter" d="M 768,200
C -250,750 768,-256 212,-246
C 768,-244 -256,768 -72,768
C -252,631 -224,-255 -246,-206
C 764,-216 768,42 768,-132
Z "/>
    <path fill="#FF77FF" fill-opacity="0" stroke="#FE03FF" stroke-opacity="1" stroke-width="0" stroke-linejoin="miter" d="M 768,-241
C 768,768 -226,768 -255,768
C 768,740 -256,-246 768,768
C -256,-256 -256,666 -236,-256
C 768,-256 768,768 684,768
Z "/>
    <path fill="#000000" fill-opacity="0.18431373" stroke="#000000" stroke-opacity="1" stroke-width="0" stroke-linejoin="miter" d="M 768,768
C -256,-256 768,-256 -256,768
C 687,-245 768,742 767,230
C 714,768 768,768 749,-253
C -256,-256 -256,-256 -256,767
Z "/>
    <text fill="#695B59" fill-opacity="1" x="193" y="289" style="font-size:38px;font-weight:700;font-family:Oxanium;font-style:normal;font-stretch:normal" textLength="184" lengthAdjust="spacing" writing-mode="lr">
        Cool Band
    </text>
    <text fill="#695B59" fill-opacity="1" x="193" y="372" style="font-size:39px;font-weight:400;font-family:Oxanium;font-style:normal;font-stretch:normal" textLength="184" lengthAdjust="spacingAndGlyphs" writing-mode="lr">
        New Song
    </text>
</svg>
