<svg xmlns="http://www.w3.org/2000/svg" width="512" height="512" viewBox="0 0 512 512">
    <defs/>
    <rect width="512" height="512" fill="#262914" fill-opacity="1"/>
    <path fill="#6A9CDE" fill-opacity="0.8509804" stroke="#FCEBED" stroke-opacity="0.84313726" stroke-width="0" stroke-linejoin="miter" d="M -143,212
C 241,332 158,-9 235,320
C -163,217 613,215 274,333
C 252,-11 306,341 389,266
C 62,331 -222,89 -216,326
Z "/>
    <path fill="#BC9BB3" fill-opacity="0.5764706" stroke="#FDFEF0" stroke-opacity="0.011764706" stroke-width="2" stroke-linejoin="miter" d="M -137,301
C -89,-88 20,93 297,-11
C 80,244 318,104 88,51
C 137,430 269,95 585,407
C 575,322 258,28 364,-101
Z "/>
    <path fill="#C1848F" fill-opacity="0.78431374" stroke="#FFFFFF" stroke-opacity="0.011764706" stroke-width="4" stroke-linejoin="miter" d="M -32,188
C -65,404 -71,384 133,176
C 527,-52 484,56 234,294
C 146,523 103,-116 289,259
C 276,262 268,274 128,76
Z "/>
    <text fill="#E6E6E6" fill-opacity="1" x="323" y="192" style="font-size:20px;font-weight:700;font-family:PT Serif;font-style:normal;font-stretch:normal" lengthAdjust="spacing" writing-mode="tb">
        Cool Band
    </text>
    <text fill="#0A0A0A" fill-opacity="1" x="171" y="259" style="font-size:18px;font-weight:700;font-family:Montserrat;font-style:normal;font-stretch:normal" lengthAdjust="spacing" writing-mode="lr">
        New Song
    </text>
</svg>
