<svg xmlns="http://www.w3.org/2000/svg" width="512" height="512" viewBox="0 0 512 512">
    <defs/>
    <rect width="512" height="512" fill="#202812" fill-opacity="1"/>
    <path fill="#A5A1DB" fill-opacity="0.85490197" stroke="#FBD9DB" stroke-opacity="0.8" stroke-width="0" stroke-linejoin="miter" d="M -134,180
C 276,280 197,-24 264,323
C -141,249 599,256 247,326
C 220,-27 306,296 391,226
C 88,286 -221,63 -214,294
Z "/>
    <path fill="#A79DA9" fill-opacity="0.3882353" stroke="#FAFEED" stroke-opacity="0.007843138" stroke-width="2" stroke-linejoin="miter" d="M -100,267
C -64,-115 47,60 235,-60
C 40,227 233,170 186,-25
C 190,495 304,85 494,428
C 510,271 306,17 440,-82
Z "/>
    <path fill="#A75F6D" fill-opacity="0.7882353" stroke="#FFFFFF" stroke-opacity="0.007843138" stroke-width="5" stroke-linejoin="miter" d="M -35,178
C -57,380 -80,338 163,152
C 508,-36 492,97 208,279
C 218,453 116,-78 254,277
C 329,271 263,240 121,93
Z "/>
    <text fill="#E6E6E6" fill-opacity="1" x="318" y="173" style="font-size:23px;font-weight:700;font-family:Oxanium;font-style:normal;font-stretch:normal" lengthAdjust="spacing" writing-mode="tb">
        Cool Band
    </text>
    <text fill="#E6E6E6" fill-opacity="1" x="267" y="316" style="font-size:22px;font-weight:700;font-family:Oxanium;font-style:normal;font-stretch:normal" lengthAdjust="spacing" writing-mode="lr">
        New Song
    </text>
</svg>
