<svg xmlns="http://www.w3.org/2000/svg" width="512" height="512" viewBox="0 0 512 512">
    <style>@import url('https://fonts.googleapis.com/css?family=Playfair Display');
        @import url('https://fonts.googleapis.com/css?family=Comfortaa');
    </style>
    <defs/>
    <rect width="512" height="512" fill="#B0B6B9" fill-opacity="1"/>
    <path fill="#070709" fill-opacity="0.9882353" stroke="#070709" stroke-opacity="0.9882353" stroke-width="0"
          stroke-linejoin="miter" d="M 269,322
C 271,321 274,322 275,321
C 274,322 267,324 268,324
C 273,322 271,325 268,330
C 268,329 264,330 267,330
C 267,330 264,330 261,331
C 259,330 259,330 260,331
C 260,329 260,330 261,332
C 256,332 256,331 254,331
C 253,330 252,330 249,329
C 255,330 255,331 250,330
C 246,329 248,329 245,328
C 246,327 244,328 241,327
C 243,327 245,328 245,326
C 242,325 240,323 239,323
C 240,329 236,331 235,326
C 239,322 240,322 238,322
C 236,326 236,323 237,314
C 237,312 237,313 236,309
C 237,306 236,302 239,298
C 241,295 240,295 241,298
C 241,294 240,289 240,284
C 239,281 240,277 240,278
C 240,276 239,275 238,268
C 235,268 238,268 239,264
C 239,255 239,253 239,253
C 237,254 238,248 237,247
C 239,241 239,236 241,231
C 240,230 239,230 240,225
C 242,221 242,217 240,220
C 242,213 243,208 241,207
C 235,209 234,211 243,209
C 244,202 243,201 241,196
C 239,192 243,191 242,201
C 241,201 246,201 241,198
C 244,193 249,193 249,197
C 242,192 246,193 249,200
C 244,199 247,198 248,199
C 251,199 252,197 252,195
C 252,199 256,197 258,196
C 255,200 256,199 256,198
C 257,196 260,194 262,196
C 262,200 262,198 259,198
C 261,194 261,194 262,193
C 264,192 268,193 272,195
C 269,196 270,197 266,195
C 266,196 268,193 271,191
C 274,191 272,192 276,195
C 277,193 270,194 272,199
C 273,200 274,202 275,205
C 275,206 276,210 277,213
C 277,213 277,215 277,218
C 277,227 275,230 273,228
C 275,229 272,231 270,237
C 270,243 271,243 273,242
C 273,245 271,247 271,258
C 272,260 271,259 269,260
C 269,261 270,264 270,266
C 269,271 269,272 269,278
C 268,285 268,288 268,288
C 268,286 269,293 268,298
C 268,299 269,299 269,302
C 270,305 271,307 272,308
C 273,311 273,313 268,316
C 268,318 268,320 269,322
Z "/>
    <path fill="#5B3621" fill-opacity="0.8901961" stroke="#5B3621" stroke-opacity="0.8901961" stroke-width="0"
          stroke-linejoin="miter" d="M 293,311
C 292,313 292,312 289,312
C 288,313 287,314 287,314
C 286,313 285,313 286,312
C 285,312 284,311 285,310
C 285,311 284,310 283,311
C 283,310 280,310 280,310
C 279,309 278,309 279,308
C 278,309 278,310 278,310
C 277,308 274,309 274,311
C 275,310 274,310 274,310
C 273,310 273,309 271,309
C 267,309 266,310 265,312
C 267,314 270,313 269,311
C 266,311 264,313 267,314
C 267,314 266,311 265,310
C 261,310 259,312 263,310
C 263,308 263,307 262,305
C 261,307 261,308 262,307
C 261,305 261,300 261,300
C 260,297 258,297 259,298
C 261,295 260,291 260,292
C 260,291 260,289 259,289
C 258,287 259,286 259,283
C 259,280 257,280 257,279
C 257,276 256,277 256,277
C 257,276 256,272 257,271
C 257,269 257,269 257,266
C 258,266 258,264 256,264
C 258,262 258,260 258,257
C 256,255 258,255 258,254
C 258,252 257,249 257,252
C 257,251 257,249 256,249
C 253,249 253,249 256,249
C 261,249 261,248 259,247
C 261,248 261,247 258,248
C 259,248 264,247 266,248
C 263,246 263,246 263,247
C 264,245 269,245 267,245
C 267,244 266,244 267,244
C 268,243 269,243 269,244
C 273,246 272,247 273,244
C 275,241 274,243 274,245
C 279,245 280,246 281,242
C 277,243 277,244 279,246
C 279,246 279,246 282,247
C 286,247 286,246 287,246
C 286,242 286,242 286,245
C 287,246 288,245 286,245
C 286,246 286,248 288,245
C 285,246 285,247 286,252
C 286,255 287,256 287,259
C 287,260 287,261 287,260
C 288,260 287,260 287,262
C 288,268 289,268 288,266
C 288,268 288,271 288,273
C 289,276 289,277 289,275
C 289,277 290,279 290,282
C 290,281 291,281 290,284
C 290,289 290,287 291,287
C 292,288 292,288 294,291
C 295,294 295,294 295,294
C 295,295 296,297 297,301
C 296,305 296,305 296,306
C 295,307 295,310 293,311
Z "/>
    <path fill="#10234A" fill-opacity="0.19215687" stroke="#10234A" stroke-opacity="0.19215687" stroke-width="0"
          stroke-linejoin="miter" d="M 123,108
C 122,114 123,126 132,133
C 134,134 140,133 149,132
C 160,131 168,131 174,129
C 179,128 185,127 193,125
C 199,124 205,122 211,120
C 217,118 223,116 229,114
C 235,112 242,111 248,109
C 254,107 261,105 267,103
C 274,102 280,100 286,99
C 292,97 298,95 305,93
C 311,92 317,90 323,88
C 330,86 336,84 342,83
C 348,81 354,79 361,77
C 367,63 372,65 382,52
C 388,50 389,38 394,45
C 408,36 403,46 397,33
C 393,12 400,17 372,21
C 360,70 366,57 370,44
C 367,43 366,48 363,56
C 353,94 356,86 359,73
C 357,79 356,85 353,97
C 344,131 347,132 349,115
C 339,151 335,169 335,171
C 341,148 341,144 329,191
C 330,191 333,183 333,175
C 322,221 320,228 320,229
C 322,222 318,238 316,249
C 316,254 321,246 316,250
C 317,239 317,238 309,273
C 305,299 307,288 311,274
C 312,273 310,282 313,288
C 320,299 314,308 303,337
C 327,341 318,340 333,301
C 331,294 320,288 318,284
C 317,280 314,276 312,270
C 308,266 303,261 299,257
C 294,252 289,248 284,243
C 280,239 275,234 271,230
C 266,225 262,221 257,216
C 252,212 248,207 243,203
C 238,198 233,194 229,189
C 224,185 220,180 215,176
C 209,171 205,167 201,163
C 196,158 191,154 185,149
C 152,137 145,134 140,150
C 140,160 128,153 134,151
C 139,129 133,119 119,115
C 118,107 126,104 123,108
Z "/>
    <path fill="#D1DFC4" fill-opacity="0.047058824" stroke="#D1DFC4" stroke-opacity="0.047058824" stroke-width="0"
          stroke-linejoin="miter" d="M 20,107
C -6,106 20,99 28,68
C 57,85 62,94 34,97
C 31,100 30,105 66,122
C 89,129 95,128 102,128
C 108,127 114,126 120,125
C 127,125 133,124 140,123
C 146,121 152,121 157,121
C 164,117 171,116 177,114
C 175,113 161,106 198,121
C 204,120 211,120 217,119
C 223,119 230,118 237,115
C 247,104 246,110 260,92
C 259,85 262,87 259,92
C 258,88 261,91 276,93
C 284,89 285,95 290,80
C 296,77 295,75 301,88
C 298,99 297,105 298,107
C 298,109 296,122 296,116
C 306,110 308,113 287,114
C 275,128 276,121 273,119
C 270,127 267,131 260,142
C 251,163 255,152 255,153
C 251,159 242,178 245,171
C 237,191 231,203 226,217
C 227,221 230,203 217,231
C 212,243 207,251 203,258
C 209,248 208,251 211,242
C 202,259 198,268 186,294
C 185,303 181,307 179,315
C 187,302 185,313 184,310
C 179,328 188,332 203,353
C 194,359 181,354 176,354
C 172,353 164,345 170,342
C 181,315 177,314 191,313
C 192,310 181,320 188,294
C 184,288 180,283 177,278
C 173,272 169,267 165,262
C 161,256 158,253 154,246
C 150,240 147,235 143,231
C 141,225 136,219 129,212
C 125,210 124,206 123,199
C 116,193 113,188 111,183
C 108,178 104,173 101,166
C 97,161 93,155 83,146
C 80,145 80,144 80,135
C 77,129 73,123 68,117
C 56,109 47,102 40,105
C 27,95 36,98 20,107
Z "/>
    <path fill="#1A0910" fill-opacity="0.05882353" stroke="#1A0910" stroke-opacity="0.05882353" stroke-width="0"
          stroke-linejoin="miter" d="M 140,457
C 146,447 143,443 153,444
C 162,437 161,432 160,422
C 161,418 161,410 161,403
C 160,397 160,390 159,384
C 159,378 158,371 158,365
C 157,358 157,352 156,345
C 156,339 155,332 155,326
C 154,320 153,313 153,306
C 152,300 152,294 151,287
C 151,281 150,275 149,268
C 148,262 148,255 147,249
C 146,242 145,236 145,231
C 144,227 144,218 144,211
C 137,202 133,193 131,191
C 131,195 131,194 134,183
C 134,167 107,148 115,189
C 120,200 126,204 135,203
C 146,183 124,174 124,195
C 139,199 130,197 131,199
C 139,203 149,214 153,215
C 148,214 154,217 185,232
C 191,234 181,228 188,231
C 187,233 192,236 225,251
C 222,248 228,252 220,248
C 218,248 225,251 270,272
C 273,273 276,274 267,271
C 292,283 302,288 310,291
C 315,294 321,296 327,299
C 332,300 338,293 337,296
C 342,297 338,288 349,268
C 347,279 339,278 345,297
C 361,307 364,311 360,313
C 355,307 357,302 357,297
C 350,292 339,302 334,308
C 343,306 338,299 326,298
C 319,299 314,302 308,306
C 303,309 298,313 292,317
C 287,320 282,324 277,328
C 271,332 266,335 261,339
C 255,343 250,346 245,350
C 240,354 234,357 229,361
C 224,365 218,368 213,372
C 208,376 202,380 197,383
C 192,387 187,391 181,394
C 176,398 170,402 165,405
C 160,409 155,414 156,424
C 163,445 155,458 149,480
C 117,465 113,476 140,457
Z "/>
    <path fill="#E3C595" fill-opacity="0" stroke="#E3C595" stroke-opacity="0" stroke-width="0" stroke-linejoin="miter"
          d="M 257,132
C 256,147 264,150 263,136
C 259,146 277,142 291,132
C 283,99 280,112 286,114
C 286,119 291,117 295,114
C 305,108 306,105 311,101
C 312,97 314,93 314,86
C 314,81 315,82 321,79
C 324,73 325,66 328,65
C 329,63 330,60 334,55
C 336,50 337,45 339,42
C 341,39 341,28 341,31
C 347,28 348,24 351,19
C 352,11 352,10 355,7
C 357,1 358,-4 360,-7
C 362,-7 365,-11 368,-16
C 344,-25 362,-26 365,-28
C 361,-26 360,-24 342,-17
C 358,-18 358,-17 353,-17
C 356,-14 362,-14 375,-15
C 384,-16 375,-15 380,-13
C 384,-11 384,-12 392,-9
C 400,-9 404,-9 409,-9
C 425,-13 417,-14 417,-9
C 436,-9 431,-7 430,-7
C 442,-7 458,-11 462,-17
C 449,-17 457,-8 469,-11
C 485,-8 481,-4 475,-2
C 483,-7 498,-16 499,-15
C 503,-17 501,-9 515,-17
C 530,-21 541,-12 520,-8
C 512,-6 519,0 519,-22
C 535,-28 543,-27 552,-18
C 554,-8 545,-2 556,-14
C 554,0 558,0 565,1
C 558,24 554,34 549,34
C 542,25 541,24 542,30
C 563,22 556,33 553,38
C 562,56 562,44 539,49
C 544,83 543,73 542,68
C 550,68 553,65 544,67
C 545,74 544,86 549,121
C 552,126 553,117 553,121
C 551,127 552,128 557,145
C 566,141 559,131 557,143
C 559,156 558,163 559,153
C 558,145 558,156 566,181
C 568,188 565,173 564,174
C 570,178 566,167 566,190
C 566,195 570,174 575,186
C 563,207 564,210 570,219
C 556,217 550,210 543,205
C 551,192 559,203 550,194
C 552,197 550,197 542,193
C 516,196 503,200 488,204
C 487,226 495,225 482,213
C 487,212 502,212 473,216
C 461,219 459,221 456,223
C 461,224 464,231 455,235
C 464,226 454,230 437,234
C 430,237 429,239 422,243
C 423,242 411,243 407,248
C 413,267 414,256 416,250
C 399,254 395,261 393,260
C 388,261 393,260 407,264
C 412,261 414,268 412,257
C 410,246 394,250 399,251
C 393,248 393,246 390,251
C 386,234 384,226 381,220
C 376,219 375,218 373,212
C 370,209 368,205 364,201
C 362,219 359,209 357,193
C 354,189 351,185 348,184
C 345,181 342,178 338,173
C 335,170 332,168 329,164
C 326,161 321,158 315,158
C 314,156 312,149 304,148
C 305,145 301,143 291,143
C 265,142 274,144 271,143
C 265,154 278,152 277,129
C 262,130 259,126 257,132
Z "/>
    <text fill="#4F4947" fill-opacity="1" x="356" y="290"
          style="font-size:49px;font-weight:900;font-family:Playfair Display;font-style:italic;font-stretch:normal"
          lengthAdjust="spacing" writing-mode="lr">
        Dance
    </text>
    <text fill="#4F4947" fill-opacity="1" x="363" y="351"
          style="font-size:49px;font-weight:900;font-family:Playfair Display;font-style:italic;font-stretch:normal"
          lengthAdjust="spacing" writing-mode="lr">
        Alone
    </text>
    <text fill="#4F4947" fill-opacity="1" x="17" y="126"
          style="font-size:125px;font-weight:400;font-family:Comfortaa;font-style:normal;font-stretch:normal"
          lengthAdjust="spacing" writing-mode="lr">
        B
    </text>
    <text fill="#4F4947" fill-opacity="1" x="3" y="249"
          style="font-size:125px;font-weight:400;font-family:Comfortaa;font-style:normal;font-stretch:normal"
          lengthAdjust="spacing" writing-mode="lr">
        O
    </text>
    <text fill="#4F4947" fill-opacity="1" x="20" y="371"
          style="font-size:125px;font-weight:400;font-family:Comfortaa;font-style:normal;font-stretch:normal"
          lengthAdjust="spacing" writing-mode="lr">
        Y
    </text>
    <text fill="#4F4947" fill-opacity="1" x="3" y="495"
          style="font-size:125px;font-weight:400;font-family:Comfortaa;font-style:normal;font-stretch:normal"
          lengthAdjust="spacing" writing-mode="lr">
        O
    </text>
</svg>
