<svg xmlns="http://www.w3.org/2000/svg" width="512" height="512" viewBox="0 0 512 512">
<style>@import url('https://fonts.googleapis.com/css?family=Balsamiq Sans');
@import url('https://fonts.googleapis.com/css?family=Fira Sans');
</style>
    <defs/>
    <rect width="512" height="512" fill="#D2C695" fill-opacity="1"/>
    <path fill="#1A1B0C" fill-opacity="0.9490196" stroke="#1A1B0C" stroke-opacity="0.9490196" stroke-width="0" stroke-linejoin="miter" d="M 151,367
C 143,363 146,364 151,361
C 151,366 145,372 154,368
C 154,360 151,366 150,374
C 148,368 147,370 146,372
C 147,373 148,373 144,372
C 135,371 134,371 137,370
C 138,369 137,369 139,372
C 137,371 138,372 133,369
C 134,370 135,369 129,373
C 139,373 136,371 135,369
C 130,366 129,368 131,369
C 131,367 128,369 127,366
C 131,372 132,371 134,368
C 133,371 132,375 115,377
C 116,377 118,376 121,373
C 119,376 125,374 116,374
C 116,365 116,357 120,350
C 117,339 115,337 120,333
C 114,328 115,318 116,318
C 112,313 113,306 108,292
C 107,284 107,279 109,282
C 107,278 108,269 103,260
C 102,253 99,251 99,243
C 103,239 105,236 97,229
C 95,214 95,210 101,208
C 98,207 95,196 98,193
C 94,183 94,179 92,165
C 95,158 92,160 96,159
C 97,143 94,135 93,133
C 99,129 99,119 92,111
C 84,108 83,111 93,108
C 87,89 89,85 87,79
C 82,78 84,74 85,84
C 98,84 103,83 101,79
C 104,83 105,82 98,85
C 92,78 92,78 94,81
C 99,80 103,79 102,82
C 102,83 104,76 102,76
C 105,80 106,81 107,79
C 109,79 108,80 103,80
C 110,77 107,77 109,76
C 107,82 109,78 108,76
C 109,77 111,75 107,74
C 105,75 110,77 118,75
C 112,74 108,78 107,77
C 113,75 115,75 120,73
C 121,75 120,81 123,78
C 129,69 111,72 120,84
C 123,81 125,90 131,97
C 132,100 131,112 131,116
C 130,119 129,123 124,131
C 124,141 129,150 127,147
C 126,150 124,156 122,168
C 124,185 128,186 127,180
C 123,189 124,198 126,214
C 130,215 130,214 125,215
C 126,228 129,232 127,231
C 127,240 127,250 129,267
C 130,275 132,280 132,276
C 130,276 131,285 135,297
C 135,302 136,306 137,319
C 141,322 141,317 141,326
C 146,336 145,343 152,353
C 150,356 153,364 151,367
Z "/>
    <path fill="#284047" fill-opacity="0.94509804" stroke="#284047" stroke-opacity="0.94509804" stroke-width="0" stroke-linejoin="miter" d="M 362,254
C 354,253 351,252 346,251
C 345,250 344,249 342,247
C 342,245 341,243 340,243
C 338,245 338,244 337,241
C 336,241 336,240 334,239
C 333,240 331,239 328,238
C 326,237 324,238 324,237
C 321,236 321,237 322,237
C 320,236 316,235 313,234
C 311,235 310,235 313,235
C 313,235 311,233 309,233
C 304,232 301,232 297,233
C 299,233 301,232 298,235
C 292,233 290,236 289,236
C 291,236 293,235 290,233
C 285,233 283,234 284,235
C 286,227 286,228 284,226
C 282,223 285,223 287,225
C 286,219 287,214 288,214
C 287,210 285,211 287,211
C 291,208 290,204 289,204
C 289,202 288,200 290,198
C 293,193 293,195 294,188
C 294,184 293,184 293,183
C 292,180 293,179 292,179
C 294,178 294,175 294,172
C 297,165 295,167 295,165
C 297,165 297,165 295,161
C 299,155 298,153 298,152
C 298,150 299,146 302,146
C 304,142 303,138 303,142
C 303,141 304,139 303,139
C 297,138 298,138 301,139
C 311,140 312,139 312,138
C 315,141 315,139 311,139
C 317,136 321,138 322,139
C 320,141 324,139 324,138
C 325,139 329,135 327,140
C 333,142 334,139 332,137
C 333,139 336,142 342,139
C 345,141 341,143 341,140
C 345,137 345,142 351,141
C 353,142 355,142 357,142
C 355,142 354,144 356,144
C 358,144 361,145 361,146
C 364,147 369,148 371,147
C 369,145 368,143 367,146
C 374,149 375,146 377,147
C 375,149 371,151 375,150
C 375,152 373,154 371,165
C 369,166 369,168 368,171
C 369,173 368,175 368,175
C 368,175 367,177 367,179
C 368,182 369,183 369,182
C 368,185 367,189 368,192
C 369,195 366,197 367,197
C 366,199 367,204 365,207
C 363,205 367,204 367,209
C 366,211 364,211 366,214
C 366,217 367,217 367,223
C 364,228 364,227 363,227
C 365,227 366,228 365,237
C 363,240 363,241 361,241
C 364,240 364,243 362,254
Z "/>
    <path fill="#6C3546" fill-opacity="0.52156866" stroke="#6C3546" stroke-opacity="0.52156866" stroke-width="0" stroke-linejoin="miter" d="M 178,320
C 181,305 188,304 205,299
C 210,308 222,311 226,308
C 232,300 246,305 252,290
C 249,292 247,296 275,289
C 284,285 288,281 292,276
C 297,272 301,268 305,263
C 310,259 314,254 316,250
C 318,244 313,243 315,226
C 337,220 341,222 346,221
C 351,217 356,211 362,208
C 367,204 371,200 376,194
C 380,189 385,185 386,183
C 387,177 380,175 397,170
C 382,166 383,153 378,126
C 385,118 377,114 387,107
C 411,96 422,95 423,95
C 418,109 416,101 409,111
C 414,155 416,159 407,166
C 402,151 401,143 407,157
C 414,184 421,184 430,169
C 425,181 413,180 426,184
C 436,200 442,210 437,220
C 427,236 431,244 429,239
C 432,243 432,247 435,274
C 448,284 445,279 431,275
C 440,307 442,313 442,320
C 441,318 444,328 445,328
C 452,337 453,336 447,337
C 443,331 444,336 451,364
C 463,389 461,379 456,368
C 460,368 463,383 470,387
C 487,392 474,395 471,422
C 490,416 487,416 481,388
C 476,387 467,384 463,382
C 458,379 459,381 451,370
C 442,363 435,361 433,359
C 427,360 421,357 414,355
C 404,351 403,349 397,348
C 391,345 386,346 377,346
C 372,341 367,344 359,342
C 347,337 348,340 328,337
C 325,333 316,334 317,333
C 309,336 301,332 302,332
C 298,342 290,337 288,350
C 266,333 249,346 242,341
C 240,340 229,336 239,333
C 237,339 225,335 204,340
C 198,331 189,336 178,320
Z "/>
    <path fill="#A4698C" fill-opacity="0.8392157" stroke="#A4698C" stroke-opacity="0.8392157" stroke-width="0" stroke-linejoin="miter" d="M -4,184
C -13,171 3,167 9,153
C 23,156 32,156 49,171
C 38,188 31,188 62,207
C 77,209 83,208 90,207
C 96,206 102,205 109,204
C 114,203 120,202 127,199
C 134,196 140,196 141,186
C 135,144 137,137 178,149
C 156,184 141,179 185,194
C 191,193 197,192 204,191
C 210,190 216,188 226,177
C 213,152 200,161 216,126
C 222,123 227,122 235,122
C 240,122 247,121 256,122
C 261,130 262,137 266,130
C 278,130 279,122 292,144
C 292,167 298,177 298,183
C 305,187 303,191 302,193
C 302,194 299,196 287,200
C 276,218 273,216 264,195
C 262,199 264,206 255,208
C 251,219 251,221 245,226
C 240,234 230,257 233,259
C 248,262 235,263 255,278
C 247,298 231,269 213,306
C 215,303 212,313 205,328
C 207,334 210,339 201,331
C 196,343 199,335 188,363
C 186,375 183,379 182,387
C 188,392 195,396 200,390
C 204,411 216,419 218,419
C 217,420 204,424 190,439
C 162,428 155,424 151,420
C 156,401 153,397 171,383
C 176,403 172,413 188,367
C 182,361 176,356 168,350
C 164,346 161,342 154,342
C 147,335 148,335 145,328
C 140,322 133,316 129,319
C 125,311 123,301 113,290
C 104,287 111,290 113,278
C 108,273 104,268 100,264
C 97,258 93,255 87,250
C 80,245 77,236 72,230
C 71,230 67,232 64,220
C 62,213 58,206 50,199
C 44,196 31,195 22,204
C 2,196 3,190 -4,184
Z "/>
    <path fill="#85221C" fill-opacity="0.2901961" stroke="#85221C" stroke-opacity="0.2901961" stroke-width="0" stroke-linejoin="miter" d="M 121,294
C 133,270 137,267 143,265
C 171,274 171,266 169,259
C 171,255 172,248 173,241
C 173,233 172,228 172,221
C 171,215 172,208 173,202
C 173,195 173,189 173,183
C 173,176 173,170 173,163
C 173,157 172,151 172,144
C 173,137 172,130 172,125
C 172,118 171,112 171,106
C 169,103 166,97 164,89
C 166,78 167,72 171,68
C 170,64 170,58 171,48
C 162,36 161,30 153,24
C 160,30 161,28 160,27
C 157,14 140,-5 142,19
C 148,29 154,35 161,33
C 172,16 160,21 161,24
C 169,21 167,21 168,30
C 170,37 178,47 181,51
C 181,52 184,55 215,69
C 224,74 216,69 221,65
C 225,75 228,80 246,90
C 246,79 252,86 258,88
C 253,92 257,96 285,113
C 286,109 286,102 300,115
C 313,128 320,132 323,128
C 333,130 343,133 345,138
C 350,138 356,133 356,133
C 365,129 362,142 380,136
C 378,129 374,132 387,137
C 408,145 415,155 414,167
C 403,184 399,187 393,191
C 389,192 382,191 374,197
C 361,194 356,181 355,160
C 342,152 336,154 329,158
C 324,161 318,163 312,166
C 307,169 301,172 296,176
C 290,179 285,181 279,185
C 274,188 268,191 262,195
C 257,198 251,201 246,204
C 240,207 235,211 229,214
C 223,218 218,221 212,224
C 207,229 201,232 196,237
C 192,239 185,241 179,244
C 174,248 168,255 175,272
C 189,290 183,300 162,330
C 121,313 114,314 121,294
Z "/>
    <path fill="#948CB7" fill-opacity="0.07058824" stroke="#948CB7" stroke-opacity="0.07058824" stroke-width="0" stroke-linejoin="miter" d="M 189,107
C 194,111 199,111 197,90
C 198,100 203,111 226,91
C 220,71 215,71 219,68
C 215,70 213,72 221,81
C 250,76 250,72 251,69
C 258,59 262,58 258,52
C 258,51 253,52 270,50
C 271,29 260,39 271,40
C 272,36 274,35 287,29
C 289,24 286,16 287,14
C 289,11 289,-1 292,8
C 298,4 301,0 304,-4
C 302,-11 302,-14 305,-17
C 307,-21 310,-28 315,-28
C 318,-30 321,-34 321,-46
C 300,-52 318,-55 316,-51
C 313,-52 313,-48 308,-44
C 315,-41 321,-42 317,-45
C 317,-41 319,-37 333,-37
C 339,-40 335,-38 339,-37
C 341,-34 343,-33 352,-34
C 374,-37 375,-36 382,-40
C 388,-49 383,-49 382,-41
C 401,-41 402,-39 396,-48
C 395,-42 418,-45 425,-51
C 418,-59 417,-53 416,-54
C 427,-47 434,-46 444,-50
C 452,-42 459,-53 457,-59
C 452,-54 453,-37 467,-58
C 487,-64 494,-59 490,-52
C 481,-38 482,-37 485,-54
C 504,-54 511,-49 522,-34
C 517,-31 516,-35 525,-31
C 525,-29 526,-27 528,-18
C 528,-1 525,7 516,8
C 513,-5 523,3 519,11
C 524,6 527,12 531,20
C 528,32 530,18 519,21
C 514,43 519,47 522,50
C 525,51 524,48 515,53
C 512,56 511,69 516,84
C 523,101 531,101 524,94
C 517,100 518,102 527,106
C 537,115 536,108 517,113
C 522,133 522,140 520,119
C 522,123 520,124 530,153
C 538,165 535,148 532,150
C 543,142 540,141 543,179
C 543,183 548,172 550,183
C 550,193 546,194 544,199
C 526,201 512,205 508,198
C 502,179 511,190 507,181
C 510,179 505,180 501,169
C 473,174 456,178 445,182
C 444,200 449,199 444,194
C 451,190 458,192 434,193
C 426,199 427,201 419,203
C 411,209 413,212 415,209
C 412,206 404,210 393,213
C 385,217 382,219 382,223
C 381,224 373,224 377,230
C 384,242 387,241 381,238
C 367,238 375,240 373,250
C 377,264 375,263 354,268
C 342,260 343,262 347,252
C 361,239 345,247 354,247
C 348,242 341,243 333,239
C 320,227 325,217 322,208
C 319,204 321,204 326,194
C 324,193 323,187 321,181
C 317,186 314,181 313,173
C 308,169 307,168 305,167
C 302,161 298,157 295,154
C 290,151 287,151 285,148
C 280,143 275,140 272,141
C 271,137 268,131 254,134
C 234,146 235,149 228,152
C 217,143 218,150 218,153
C 211,148 216,147 213,136
C 198,134 199,127 189,107
Z "/>
    <text fill="#2F3A6A" fill-opacity="1" x="17" y="495" style="font-size:37px;font-weight:700;font-family:Balsamiq Sans;font-style:normal;font-stretch:normal" textLength="476" lengthAdjust="spacing" writing-mode="lr">
        Sugar Cane (feat. Emilia Ali)
    </text>
    <text fill="#2F3A6A" fill-opacity="1" x="264" y="88" style="font-size:74px;font-weight:300;font-family:Fira Sans;font-style:italic;font-stretch:normal" textLength="240" lengthAdjust="spacing" writing-mode="lr">
        Nawms
    </text>
</svg>
